<svg width="1440" height="1256" viewBox="0 0 1440 1256" fill="none" xmlns="http://www.w3.org/2000/svg">
<g id="logo">
<rect id="Rectangle 1" y="178" width="1440" height="900" fill="white"/>
<g id="LowerT">
<path id="T-2" d="M693.02 921.48H690.8C689.01 904.82 681.19 904.57 676.45 904.57H675.04V979.78C675.04 982.85 675.43 986.57 680.43 986.57H682.48V988.75H656.25V986.57H658.43C663.17 986.57 663.17 982.85 663.17 979.78V904.57H661.8C657.06 904.57 649.24 904.82 647.45 921.48H645.27V902H693.06L693.02 921.48Z" fill="black"/>
<path id="TH-2" d="M747.86 904.06H747.22C742.61 904.06 742.48 907.78 742.48 910.34V979.79C742.48 982.86 742.61 986.58 747.09 986.58H748.09V988.76H725.05V986.58H726.46C731.08 986.58 731.33 982.86 731.33 979.79V946.34H712.33V979.78C712.33 982.85 712.46 986.57 716.81 986.57H717.97V988.75H694.94V986.57H696.23C700.97 986.57 701.09 982.85 701.09 979.78V910.33C701.09 907.77 701.09 904.05 696.09 904.05H695.19V902H717.8V904.06H717.16C712.55 904.06 712.42 907.78 712.42 910.34V943.06H731.42V910.33C731.42 907.77 731.42 904.05 726.3 904.05H725.4V902H747.95L747.86 904.06Z" fill="black"/>
<path id="THE-2" d="M769.64 942.49H773.36C777.71 942.49 781.94 939.8 781.94 934.29V931.47H784.5V958.25H781.94V954.15C781.999 952.995 781.82 951.841 781.413 950.759C781.007 949.677 780.381 948.69 779.576 947.861C778.771 947.031 777.803 946.376 776.734 945.938C775.664 945.499 774.516 945.285 773.36 945.31H769.64V982.31C769.64 985.64 771.64 985.9 772.72 985.9H778.48C784.25 985.9 790.14 984.49 792.06 966.81H794.37V988.72H751.32V986.54H752.98C757.47 986.54 757.73 982.54 757.73 979.75V910.33C757.73 907.77 757.73 904.05 752.73 904.05H751.32V902H792.8V921.48H790.5C789.6 912.48 786.78 904.82 776.79 904.82H769.61L769.64 942.49Z" fill="black"/>
</g>
<rect id="LowerT-mask" x="622" y="900" width="197" height="87" fill="#14FF00"/>
<g id="LowerB">
<path id="BE-2" d="M560.85 1104.5H568.1C576.6 1104.5 584.85 1099.25 584.85 1088.5V1083H589.85V1135.25H584.85V1127.25C584.85 1116.75 577.35 1110 568.1 1110H560.85V1182.25C560.85 1188.75 564.85 1189.25 566.85 1189.25H578.1C589.35 1189.25 600.85 1186.5 604.6 1152H609.1V1194.75H525.1V1190.5H528.35C537.1 1190.5 537.6 1182.75 537.6 1177.25V1041.75C537.6 1036.75 537.6 1029.5 527.85 1029.5H525.1V1025.5H606.1V1063.5H601.6C599.85 1046 594.35 1031 574.85 1031H560.85V1104.5Z" fill="black"/>
<path id="BEATL-2" d="M864.35 1182.25C864.35 1188.75 868.35 1189.25 870.35 1189.25H880.85C892.1 1189.25 903.6 1186.5 907.35 1152H911.85V1194.75H828.6V1190.5H831.85C840.6 1190.5 841.1 1182.75 841.1 1177.25V1041.75C841.1 1036.75 841.1 1029.5 830.35 1029.5H828.85V1025.5H875.6V1029.5H873.35C864.35 1029.5 864.35 1036.75 864.35 1041.75V1182.25Z" fill="black"/>
<path id="BEATLE-2" d="M952.1 1104.5H959.35C967.85 1104.5 976.1 1099.25 976.1 1088.5V1083H981.1V1135.25H976.1V1127.25C976.1 1116.75 968.6 1110 959.35 1110H952.1V1182.25C952.1 1188.75 956.1 1189.25 958.1 1189.25H969.35C980.6 1189.25 992.1 1186.5 995.85 1152H1000.35V1194.75H916.35V1190.5H919.6C928.35 1190.5 928.85 1182.75 928.85 1177.25V1041.75C928.85 1036.75 928.85 1029.5 919.1 1029.5H916.35V1025.5H997.35V1063.5H992.85C991.1 1046 985.6 1031 966.1 1031H952.1V1104.5Z" fill="black"/>
<path id="BEATLES-2" d="M1041.1 1197.5C1030.85 1197.5 1017.85 1194.5 1008.6 1193.5V1152H1013.1C1014.35 1168.5 1023.35 1191.5 1041.1 1191.5C1056.85 1191.5 1062.6 1179 1062.6 1167.5C1062.6 1125.25 1005.6 1109 1005.6 1064.5C1005.6 1041.5 1022.6 1022.75 1046.1 1022.75C1055.85 1022.75 1066.85 1024.75 1073.35 1026.25V1060H1068.6C1067.35 1047.5 1061.6 1028.75 1044.35 1028.75C1030.85 1028.75 1023.35 1040.75 1023.35 1053.25C1023.35 1090 1079.6 1107.75 1079.6 1152C1079.6 1174 1066.85 1197.5 1041.1 1197.5Z" fill="black"/>
</g>
<rect id="LowerB-Mask" x="360" y="900" width="720" height="356" fill="#FAFF00"/>
<g id="THE">
<path id="T" d="M693.02 469.48H690.8C689.01 452.82 681.19 452.57 676.45 452.57H675.04V527.78C675.04 530.85 675.43 534.57 680.43 534.57H682.48V536.75H656.25V534.57H658.43C663.17 534.57 663.17 530.85 663.17 527.78V452.57H661.8C657.06 452.57 649.24 452.82 647.45 469.48H645.27V450H693.06L693.02 469.48Z" fill="black"/>
<path id="TH" d="M747.86 452.06H747.22C742.61 452.06 742.48 455.78 742.48 458.34V527.79C742.48 530.86 742.61 534.58 747.09 534.58H748.09V536.76H725.05V534.58H726.46C731.08 534.58 731.33 530.86 731.33 527.79V494.34H712.33V527.78C712.33 530.85 712.46 534.57 716.81 534.57H717.97V536.75H694.94V534.57H696.23C700.97 534.57 701.09 530.85 701.09 527.78V458.33C701.09 455.77 701.09 452.05 696.09 452.05H695.19V450H717.8V452.06H717.16C712.55 452.06 712.42 455.78 712.42 458.34V491.06H731.42V458.33C731.42 455.77 731.42 452.05 726.3 452.05H725.4V450H747.95L747.86 452.06Z" fill="black"/>
<path id="THE_2" d="M769.64 490.49H773.36C777.71 490.49 781.94 487.8 781.94 482.29V479.47H784.5V506.25H781.94V502.15C781.999 500.995 781.82 499.841 781.413 498.759C781.007 497.677 780.381 496.69 779.576 495.861C778.771 495.031 777.803 494.376 776.734 493.938C775.664 493.499 774.516 493.285 773.36 493.31H769.64V530.31C769.64 533.64 771.64 533.9 772.72 533.9H778.48C784.25 533.9 790.14 532.49 792.06 514.81H794.37V536.72H751.32V534.54H752.98C757.47 534.54 757.73 530.54 757.73 527.75V458.33C757.73 455.77 757.73 452.05 752.73 452.05H751.32V450H792.8V469.48H790.5C789.6 460.48 786.78 452.82 776.79 452.82H769.61L769.64 490.49Z" fill="black"/>
</g>
<rect id="The-Mask" x="622" y="450" width="197" height="87" fill="#14FF00"/>
<g id="BEATLES">
<path id="B" d="M442.09 450.26C483.09 450.26 515.97 468.41 515.97 514.64C515.97 547.04 492.64 581.17 458.97 587.64C499.15 595.85 524.64 629.98 524.64 666.7C524.64 708.61 492.23 742.7 449.9 742.7H360V735.35H364.32C380.32 735.35 380.32 725.42 380.32 712.46V478.35C380.32 469.71 380.32 457.18 363.9 457.18H360.45V450.26H442.09ZM431.29 458.91H420.49V583.76H437.8C457.67 583.76 475.39 556.98 475.39 519.82C475.36 462.36 448.14 458.91 431.29 458.91V458.91ZM420.49 722.06C420.49 733.29 427.4 733.72 430.86 733.72H442.52C468.88 733.72 481.84 707.37 481.84 668.06C481.84 602.39 448.14 593.75 436.91 593.75H420.49V722.06Z" fill="black"/>
<path id="BE" d="M560.85 652.5H568.1C576.6 652.5 584.85 647.25 584.85 636.5V631H589.85V683.25H584.85V675.25C584.85 664.75 577.35 658 568.1 658H560.85V730.25C560.85 736.75 564.85 737.25 566.85 737.25H578.1C589.35 737.25 600.85 734.5 604.6 700H609.1V742.75H525.1V738.5H528.35C537.1 738.5 537.6 730.75 537.6 725.25V589.75C537.6 584.75 537.6 577.5 527.85 577.5H525.1V573.5H606.1V611.5H601.6C599.85 594 594.35 579 574.85 579H560.85V652.5Z" fill="black"/>
<path id="BEA" d="M662.6 569L697.1 726.25C699.1 735.75 704.35 738.5 710.85 738.5V742.75H663.35V738.5C671.85 738.5 674.1 736.5 673.1 729C673.1 729.25 669.6 711.5 664.6 688.25H634.1L626.85 728.75C626.35 732.75 627.35 738 638.6 738.5V742.75H603.1V738.5C614.1 738.5 616.85 732.75 618.85 724.75L644.6 592.25C643.1 585 642.1 580 642.1 580C649.56 577.645 656.513 573.914 662.6 569V569ZM648.35 610.25L635.35 681.75H663.35L648.35 610.25Z" fill="black"/>
<path id="BEAT" d="M819.53 625.63H813.7C808.89 581.04 787.97 580.36 775.28 580.36H771.51V781.68C771.51 789.91 772.51 799.86 785.92 799.86H791.4V805.69H721.1V799.86H726.93C739.62 799.86 739.62 789.91 739.62 781.68V580.36H735.8C723.11 580.36 702.19 581.04 697.39 625.63H691.6V573.5H819.53V625.63Z" fill="black"/>
<path id="BEATL" d="M864.35 730.25C864.35 736.75 868.35 737.25 870.35 737.25H880.85C892.1 737.25 903.6 734.5 907.35 700H911.85V742.75H828.6V738.5H831.85C840.6 738.5 841.1 730.75 841.1 725.25V589.75C841.1 584.75 841.1 577.5 830.35 577.5H828.85V573.5H875.6V577.5H873.35C864.35 577.5 864.35 584.75 864.35 589.75V730.25Z" fill="black"/>
<path id="BEATLE" d="M952.1 652.5H959.35C967.85 652.5 976.1 647.25 976.1 636.5V631H981.1V683.25H976.1V675.25C976.1 664.75 968.6 658 959.35 658H952.1V730.25C952.1 736.75 956.1 737.25 958.1 737.25H969.35C980.6 737.25 992.1 734.5 995.85 700H1000.35V742.75H916.35V738.5H919.6C928.35 738.5 928.85 730.75 928.85 725.25V589.75C928.85 584.75 928.85 577.5 919.1 577.5H916.35V573.5H997.35V611.5H992.85C991.1 594 985.6 579 966.1 579H952.1V652.5Z" fill="black"/>
<path id="BEATLES_2" d="M1041.1 745.5C1030.85 745.5 1017.85 742.5 1008.6 741.5V700H1013.1C1014.35 716.5 1023.35 739.5 1041.1 739.5C1056.85 739.5 1062.6 727 1062.6 715.5C1062.6 673.25 1005.6 657 1005.6 612.5C1005.6 589.5 1022.6 570.75 1046.1 570.75C1055.85 570.75 1066.85 572.75 1073.35 574.25V608H1068.6C1067.35 595.5 1061.6 576.75 1044.35 576.75C1030.85 576.75 1023.35 588.75 1023.35 601.25C1023.35 638 1079.6 655.75 1079.6 700C1079.6 722 1066.85 745.5 1041.1 745.5Z" fill="black"/>
</g>
<rect id="Beatles-Mask" x="360" y="450" width="720" height="356" fill="#FAFF00"/>
<g id="UpperB">
<path id="B-3" d="M441.09 1C482.09 1 514.97 19.15 514.97 65.38C514.97 97.78 491.64 131.91 457.97 138.38C498.15 146.59 523.64 180.72 523.64 217.44C523.64 259.35 491.23 293.44 448.9 293.44H359V286.09H363.32C379.32 286.09 379.32 276.16 379.32 263.2V29.09C379.32 20.45 379.32 7.91998 362.9 7.91998H359.45V1H441.09ZM430.29 9.64999H419.49V134.5H436.8C456.67 134.5 474.39 107.72 474.39 70.56C474.36 13.1 447.14 9.64999 430.29 9.64999V9.64999ZM419.49 272.8C419.49 284.03 426.4 284.46 429.86 284.46H441.52C467.88 284.46 480.84 258.11 480.84 218.8C480.84 153.13 447.14 144.49 435.91 144.49H419.49V272.8Z" fill="black"/>
<path id="BEA-3" d="M661.6 119.74L696.1 276.99C698.1 286.49 703.35 289.24 709.85 289.24V293.49H662.35V289.24C670.85 289.24 673.1 287.24 672.1 279.74C672.1 279.99 668.6 262.24 663.6 238.99H633.1L625.85 279.49C625.35 283.49 626.35 288.74 637.6 289.24V293.49H602.1V289.24C613.1 289.24 615.85 283.49 617.85 275.49L643.6 142.99C642.1 135.74 641.1 130.74 641.1 130.74C648.559 128.384 655.512 124.654 661.6 119.74V119.74ZM647.35 160.99L634.35 232.49H662.35L647.35 160.99Z" fill="black"/>
<path id="BEAT-3" d="M818.53 176.37H812.7C807.89 131.78 786.97 131.1 774.28 131.1H770.51V332.42C770.51 340.65 771.51 350.6 784.92 350.6H790.4V356.43H720.1V350.6H725.93C738.62 350.6 738.62 340.65 738.62 332.42V131.1H734.8C722.11 131.1 701.19 131.78 696.39 176.37H690.6V124.24H818.53V176.37Z" fill="black"/>
</g>
<rect id="UpperB-Mask" x="360" width="720" height="356" fill="#FAFF00"/>
</g>
</svg>
