<svg width="1440" height="900" viewBox="0 0 1440 900" fill="none" xmlns="http://www.w3.org/2000/svg">
<g id="Construction">
<rect width="1440" height="900" fill="white"/>
<g id="logo">
<g id="THE">
<path id="T" d="M693.02 291.48H690.8C689.01 274.82 681.19 274.57 676.45 274.57H675.04V349.78C675.04 352.85 675.43 356.57 680.43 356.57H682.48V358.75H656.25V356.57H658.43C663.17 356.57 663.17 352.85 663.17 349.78V274.57H661.8C657.06 274.57 649.24 274.82 647.45 291.48H645.27V272H693.06L693.02 291.48Z" fill="black"/>
<path id="TH" d="M747.86 274.06H747.22C742.61 274.06 742.48 277.78 742.48 280.34V349.79C742.48 352.86 742.61 356.58 747.09 356.58H748.09V358.76H725.05V356.58H726.46C731.08 356.58 731.33 352.86 731.33 349.79V316.34H712.33V349.78C712.33 352.85 712.46 356.57 716.81 356.57H717.97V358.75H694.94V356.57H696.23C700.97 356.57 701.09 352.85 701.09 349.78V280.33C701.09 277.77 701.09 274.05 696.09 274.05H695.19V272H717.8V274.06H717.16C712.55 274.06 712.42 277.78 712.42 280.34V313.06H731.42V280.33C731.42 277.77 731.42 274.05 726.3 274.05H725.4V272H747.95L747.86 274.06Z" fill="black"/>
<path id="THE_2" d="M769.64 312.49H773.36C777.71 312.49 781.94 309.8 781.94 304.29V301.47H784.5V328.25H781.94V324.15C781.999 322.995 781.82 321.841 781.413 320.759C781.007 319.677 780.381 318.69 779.576 317.861C778.771 317.031 777.803 316.376 776.734 315.938C775.664 315.499 774.516 315.285 773.36 315.31H769.64V352.31C769.64 355.64 771.64 355.9 772.72 355.9H778.48C784.25 355.9 790.14 354.49 792.06 336.81H794.37V358.72H751.32V356.54H752.98C757.47 356.54 757.73 352.54 757.73 349.75V280.33C757.73 277.77 757.73 274.05 752.73 274.05H751.32V272H792.8V291.48H790.5C789.6 282.48 786.78 274.82 776.79 274.82H769.61L769.64 312.49Z" fill="black"/>
</g>
<g id="BEATLES">
<path id="B" d="M442.09 272.26C483.09 272.26 515.97 290.41 515.97 336.64C515.97 369.04 492.64 403.17 458.97 409.64C499.15 417.85 524.64 451.98 524.64 488.7C524.64 530.61 492.23 564.7 449.9 564.7H360V557.35H364.32C380.32 557.35 380.32 547.42 380.32 534.46V300.35C380.32 291.71 380.32 279.18 363.9 279.18H360.45V272.26H442.09ZM431.29 280.91H420.49V405.76H437.8C457.67 405.76 475.39 378.98 475.39 341.82C475.36 284.36 448.14 280.91 431.29 280.91V280.91ZM420.49 544.06C420.49 555.29 427.4 555.72 430.86 555.72H442.52C468.88 555.72 481.84 529.37 481.84 490.06C481.84 424.39 448.14 415.75 436.91 415.75H420.49V544.06Z" fill="black"/>
<path id="BE" d="M560.85 474.5H568.1C576.6 474.5 584.85 469.25 584.85 458.5V453H589.85V505.25H584.85V497.25C584.85 486.75 577.35 480 568.1 480H560.85V552.25C560.85 558.75 564.85 559.25 566.85 559.25H578.1C589.35 559.25 600.85 556.5 604.6 522H609.1V564.75H525.1V560.5H528.35C537.1 560.5 537.6 552.75 537.6 547.25V411.75C537.6 406.75 537.6 399.5 527.85 399.5H525.1V395.5H606.1V433.5H601.6C599.85 416 594.35 401 574.85 401H560.85V474.5Z" fill="black"/>
<path id="BEA" d="M662.6 391L697.1 548.25C699.1 557.75 704.35 560.5 710.85 560.5V564.75H663.35V560.5C671.85 560.5 674.1 558.5 673.1 551C673.1 551.25 669.6 533.5 664.6 510.25H634.1L626.85 550.75C626.35 554.75 627.35 560 638.6 560.5V564.75H603.1V560.5C614.1 560.5 616.85 554.75 618.85 546.75L644.6 414.25C643.1 407 642.1 402 642.1 402C649.56 399.645 656.513 395.914 662.6 391V391ZM648.35 432.25L635.35 503.75H663.35L648.35 432.25Z" fill="black"/>
<path id="BEAT" d="M819.53 447.63H813.7C808.89 403.04 787.97 402.36 775.28 402.36H771.51V603.68C771.51 611.91 772.51 621.86 785.92 621.86H791.4V627.69H721.1V621.86H726.93C739.62 621.86 739.62 611.91 739.62 603.68V402.36H735.8C723.11 402.36 702.19 403.04 697.39 447.63H691.6V395.5H819.53V447.63Z" fill="black"/>
<path id="BEATL" d="M864.35 552.25C864.35 558.75 868.35 559.25 870.35 559.25H880.85C892.1 559.25 903.6 556.5 907.35 522H911.85V564.75H828.6V560.5H831.85C840.6 560.5 841.1 552.75 841.1 547.25V411.75C841.1 406.75 841.1 399.5 830.35 399.5H828.85V395.5H875.6V399.5H873.35C864.35 399.5 864.35 406.75 864.35 411.75V552.25Z" fill="black"/>
<path id="BEATLE" d="M952.1 474.5H959.35C967.85 474.5 976.1 469.25 976.1 458.5V453H981.1V505.25H976.1V497.25C976.1 486.75 968.6 480 959.35 480H952.1V552.25C952.1 558.75 956.1 559.25 958.1 559.25H969.35C980.6 559.25 992.1 556.5 995.85 522H1000.35V564.75H916.35V560.5H919.6C928.35 560.5 928.85 552.75 928.85 547.25V411.75C928.85 406.75 928.85 399.5 919.1 399.5H916.35V395.5H997.35V433.5H992.85C991.1 416 985.6 401 966.1 401H952.1V474.5Z" fill="black"/>
<path id="BEATLES_2" d="M1041.1 567.5C1030.85 567.5 1017.85 564.5 1008.6 563.5V522H1013.1C1014.35 538.5 1023.35 561.5 1041.1 561.5C1056.85 561.5 1062.6 549 1062.6 537.5C1062.6 495.25 1005.6 479 1005.6 434.5C1005.6 411.5 1022.6 392.75 1046.1 392.75C1055.85 392.75 1066.85 394.75 1073.35 396.25V430H1068.6C1067.35 417.5 1061.6 398.75 1044.35 398.75C1030.85 398.75 1023.35 410.75 1023.35 423.25C1023.35 460 1079.6 477.75 1079.6 522C1079.6 544 1066.85 567.5 1041.1 567.5Z" fill="black"/>
</g>
</g>
<rect id="Rectangle 3" x="360" y="272" width="720" height="356" fill="#FAFF00"/>
<rect id="Rectangle 2" x="622" y="272" width="197" height="87" fill="#14FF00"/>
</g>
</svg>
