<svg width="740" height="825" viewBox="0 0 740 825" fill="none" xmlns="http://www.w3.org/2000/svg">
<g id="logo-4">
<g id="THE">
<path id="t-4" d="M271.159 237.941H267.621C264.768 203.564 251.815 216.284 244.261 216.284H242.014L242.057 342.739C242.057 349.073 242.679 356.749 250.647 356.749H253.915L254.361 376.746H212.556L212.11 356.749H215.585C223.139 356.749 223.139 349.073 223.139 342.739L223.096 216.284H220.912C213.358 216.284 201.384 203.564 198.531 237.941H195.057V197.745H271.223L271.159 237.941Z" fill="black"/>
<path id="th-4" d="M464.736 7.31415H462.772C448.623 7.31415 448.224 20.5222 448.224 29.6117V276.198C448.224 287.099 448.623 300.307 462.373 300.307H465.442V308.047H394.73V300.307H399.058C413.237 300.307 414.004 287.099 414.004 276.198V157.432H355.692V276.163C355.692 287.063 356.091 300.271 369.441 300.271H373.001V308.011H302.32V300.271H306.279C320.827 300.271 334.578 285.214 334.578 274.314V27.7273C334.578 18.6379 321.195 7.27861 305.85 7.27861H303.088V0H372.479V7.31415H370.515C356.367 7.31415 355.968 20.5222 355.968 29.6117V145.786H414.28V29.5762C414.28 20.4867 414.28 7.27861 398.567 7.27861H395.804V0H465.012L464.736 7.31415Z" fill="black"/>
<path id="the-4" d="M493.136 285.2H498.358C504.464 285.2 510.402 281.421 510.402 273.679V269.717H513.996V307.344H510.402V301.583C510.486 299.961 510.234 298.339 509.663 296.819C509.092 295.298 508.214 293.912 507.084 292.746C505.953 291.581 504.595 290.661 503.094 290.044C501.592 289.428 499.98 289.128 498.358 289.163H493.136V341.149C493.136 345.827 495.943 346.193 497.459 346.193H505.545C513.645 346.193 521.913 344.212 524.609 319.371H527.852V350.155H467.418V347.092H469.748C476.051 347.092 476.416 341.472 476.416 337.552L484.933 288.454L476.416 240.015C476.416 236.418 476.416 231.191 469.397 231.191H467.418V228.311H525.648V255.681H522.419C521.155 243.035 517.197 232.273 503.173 232.273H493.094L493.136 285.2Z" fill="black"/>
</g>
<g id="BEATLES">
<path id="bea-4" d="M285.867 396.549L330.115 661.026C332.861 678.604 340.069 683.692 348.993 683.692V691.556H283.777V683.692C295.447 683.692 298.536 679.992 297.163 666.115C297.163 666.577 295.477 660.216 288.613 617.197H246.737L236.782 692.134C236.096 699.535 221.184 815.708 236.63 816.633V824.497H187.889V816.633C202.992 816.633 223.053 699.535 225.799 684.733L261.153 439.569C259.093 426.154 257.72 416.903 257.72 416.903C267.963 412.544 277.509 405.641 285.867 396.549ZM266.302 472.874L248.453 605.17H286.896L266.302 472.874Z" fill="black"/>
<path id="be-4" d="M183.81 285.605L258.451 286.65L258.486 286.651H258.521L258.524 286.651C258.542 286.65 258.587 286.65 258.71 286.717C258.872 286.806 259.184 287.025 259.611 287.525C260.505 288.572 261.522 290.39 262.541 293.149C264.564 298.63 266.116 306.476 267.296 315.482C269.279 330.62 270.096 348.027 270.701 360.91C270.814 363.298 270.918 365.531 271.022 367.565L271.264 372.311H276.016H279.386H284.252L284.384 367.446L286.924 273.7L287.062 268.609L281.969 268.565L152.022 267.448L146.979 267.405V272.448V278.329V283.329H151.979H154.038C154.435 283.329 154.498 283.4 154.565 283.477C154.571 283.484 154.577 283.491 154.584 283.498C154.819 283.753 155.227 284.416 155.583 285.811C156.31 288.668 156.341 292.493 156.341 296.339V296.358L156.341 296.378L158.75 609.07C158.75 609.077 158.75 609.083 158.75 609.09C158.75 613.184 158.637 617.485 157.878 620.692C157.497 622.304 157.057 623.157 156.767 623.519C156.758 623.53 156.749 623.541 156.741 623.551H154.388H149.388V628.551V634.799V639.608L154.193 639.796L265.853 644.162L271.048 644.366V639.166V576.314V571.314H266.048H262.678H257.947L257.686 576.038C256.283 601.364 253.445 614.165 250.36 620.54C248.882 623.594 247.527 624.787 246.598 625.322C245.671 625.855 244.59 626.072 242.92 626.08L187.244 623.968C186.767 622.867 186.164 620.565 186.164 616.422V515.198H186.594C187.373 515.198 189.157 515.76 191.019 519.378C192.821 522.879 194.139 528.374 194.139 535.559V547.321V552.321H199.139H202.884H207.884V547.321V470.502V465.502H202.884H199.139H194.139V470.502V478.588C194.139 485.91 192.698 490.816 190.965 493.707C189.25 496.569 187.539 497.112 186.594 497.112H186.11L183.81 285.605Z" fill="black" stroke="white" stroke-width="10"/>
<path id="b-4" d="M123.362 328.679L123.402 328.367V328.053C123.402 309.657 125.544 290.221 128.103 271.251C128.884 265.455 129.708 259.681 130.52 253.996C132.345 241.215 134.106 228.878 135.179 217.729C136.719 201.737 136.975 187.173 133.555 176.456C131.808 170.98 129 166.174 124.615 162.764C120.193 159.325 114.649 157.68 108.143 157.68H18.2464H13.2464V162.68V173.903V178.903H18.2464H22.0453C25.5618 178.903 27.7704 179.863 29.2926 181.135C30.8942 182.473 32.1726 184.526 33.1189 187.386C35.0769 193.305 35.1259 201.02 35.1259 208.238V208.403L35.1368 208.567L51.8249 461.744L27.398 715.502L27.375 715.741V715.982C27.375 726.822 27.3159 735.145 25.426 740.855C24.5398 743.532 23.3741 745.199 21.9631 746.246C20.5643 747.283 18.3944 748.106 14.7569 748.106H10H5V753.106V765.026V770.026H10H108.992C121.77 770.026 130.829 765.958 136.244 757.611C141.332 749.768 142.531 739.068 142.33 727.404C142.155 717.254 140.877 705.516 139.511 692.975C139.29 690.941 139.066 688.887 138.844 686.815C137.242 671.836 135.712 655.685 135.712 638.976C135.712 625.46 141.101 613.536 148.148 602.313C151.256 597.364 154.609 592.666 157.918 588.031C158.368 587.401 158.816 586.773 159.264 586.145C162.948 580.971 166.559 575.801 169.329 570.725C172.097 565.653 174.227 560.326 174.662 554.799C175.109 549.115 173.738 543.529 170.041 538.142C164.159 529.569 152.491 521.674 133.398 513.74C153.051 505.703 164.155 495.342 168.397 482.475C173.381 467.358 168.188 450.609 160.674 434.116C157.088 426.248 152.811 418.11 148.505 409.919C148.229 409.394 147.952 408.869 147.676 408.344C143.065 399.568 138.448 390.705 134.449 381.738C126.419 363.733 121.183 345.942 123.362 328.679ZM81.7261 502.249L85.4008 345.543C86.166 367.082 89.5624 393.299 92.7756 418.102C93.992 427.492 95.1822 436.679 96.1935 445.333C98.2415 462.86 99.5518 478.111 99.0559 488.902C98.805 494.362 98.1061 498.155 97.1257 500.428C96.653 501.524 96.2365 501.975 96.0464 502.131C95.9444 502.214 95.8898 502.249 95.6681 502.249H81.7261ZM94.1188 229.476C91.4849 248.714 88.2224 272.543 86.4786 299.581L89.2426 181.709H96.2507C96.4765 181.709 96.588 181.736 96.6283 181.75C96.6628 181.779 96.7738 181.888 96.9308 182.175C97.4638 183.15 97.9945 185.182 98.1385 188.854C98.4218 196.085 97.1657 206.926 95.2362 221.269C94.882 223.902 94.5072 226.639 94.1188 229.476ZM96.6467 181.758C96.6463 181.759 96.6408 181.757 96.6313 181.751C96.6423 181.755 96.6471 181.758 96.6467 181.758ZM96.625 181.747C96.6197 181.744 96.6171 181.742 96.6171 181.742C96.6171 181.742 96.6198 181.743 96.625 181.747ZM88.0263 745.462C86.4184 745.462 85.3705 745.276 84.4764 744.355C83.4381 743.285 81.6075 740.156 81.6075 731.551V528.452H94.6881C95.4151 528.452 95.8078 528.509 95.9923 528.549C96.0203 528.605 96.0556 528.684 96.097 528.789C96.3698 529.485 96.6678 530.795 96.8516 533.192C97.0313 535.534 97.0825 538.594 97.0352 542.618C96.9787 547.438 96.7782 553.583 96.5266 561.296C95.9509 578.947 95.1074 604.807 95.1074 641.783C95.1074 668.414 100.217 691.941 104.122 709.92C104.985 713.895 105.79 717.599 106.467 721.006C107.411 725.752 108.096 729.842 108.4 733.321C108.708 736.841 108.592 739.415 108.139 741.245C107.714 742.959 107.062 743.785 106.33 744.29C105.495 744.865 103.909 745.462 100.865 745.462H88.0263ZM95.9193 528.422C95.9194 528.422 95.9228 528.426 95.9291 528.435C95.9223 528.427 95.9191 528.422 95.9193 528.422Z" fill="black" stroke="white" stroke-width="10"/>
<path id="beat-4" d="M438.202 412.57H432.651C429.462 334.779 406.143 345.939 394.062 345.939H390.473V773.704C390.473 791.191 391.425 812.333 404.192 812.333H409.409V824.721H342.48V812.333H348.03C360.112 812.333 360.112 791.191 360.112 773.704L370.12 556.44L360.112 345.939H356.475C344.393 345.939 325.544 337.644 321.918 412.57H316.406L314.394 331.363H436.19L438.202 412.57Z" fill="black"/>
<path id="beatl-4" d="M545.88 691.646H541.24L540.894 696.272C537.666 739.384 531.135 761.596 523.684 772.983C520.064 778.514 516.299 781.375 512.617 782.942C508.838 784.55 504.747 784.97 500.148 784.97H482.028C480.922 784.97 480.027 784.783 479.24 783.926C478.307 782.91 476.674 780.023 476.674 772.432V420.432C476.674 413.964 476.72 407.128 478.381 401.904C479.183 399.381 480.246 397.645 481.507 396.549C482.674 395.535 484.378 394.742 487.206 394.742H491.088H496.088V389.742V379.72V374.72H491.088H410.411H405.411V379.72V389.742V394.742H410.411H413C416.793 394.742 419.186 395.656 420.783 396.818C422.406 398 423.643 399.756 424.558 402.165C426.489 407.25 426.551 413.935 426.551 420.432V759.906C426.551 766.863 426.304 774.414 424.47 780.148C423.57 782.961 422.407 784.936 421.061 786.179C419.831 787.314 418.177 788.101 415.588 788.101H409.98H404.98V793.101V803.749V808.749H409.98H553.646H558.646V803.749V696.646V691.646H553.646H545.88Z" fill="black" stroke="white" stroke-width="10"/>
<path id="beatle-4" d="M600.947 565.036L546.154 565.884L547.547 374.844H556.377C564.237 374.844 568.796 377.977 571.865 382.923C575.196 388.29 576.908 396.069 577.754 405.331L578.17 409.876H582.734H587.167H592.167V404.876V363.916V358.916H587.167H507.36H502.36V363.916V368.227V373.227H507.36H510.07C511.799 373.227 512.648 373.576 513.036 373.811C513.389 374.025 513.672 374.328 513.928 374.887C514.572 376.297 514.67 378.346 514.676 381.164L501.272 505.051L501.239 505.357L501.244 505.666L504.395 710.298C504.393 713.314 504.219 715.902 503.468 717.671C503.139 718.446 502.791 718.828 502.486 719.04C502.205 719.236 501.598 719.542 500.281 719.542H497.079H492.079V724.542V729.123V734.123H497.079H579.842H584.842V729.123V683.043V678.043H579.842H575.408H570.88L570.433 682.548C568.609 700.904 564.969 709.617 561.349 713.786C558.11 717.517 554.363 718.195 549.298 718.195H538.214C537.932 718.195 537.771 718.171 537.69 718.154C537.669 718.115 537.643 718.059 537.613 717.982C537.492 717.669 537.316 717.003 537.303 715.796L545.813 581.819L601.06 580.964C607.032 580.982 612.528 585.637 612.528 594.557V603.181V608.181H617.528H622.454H627.454V603.181V546.86V541.86H622.454H617.528H612.528V546.86V552.788C612.528 557.333 610.975 560.27 609.012 562.096C606.975 563.99 604.118 565.035 601.024 565.035H600.986L600.947 565.036ZM537.738 718.23C537.737 718.23 537.734 718.227 537.729 718.22C537.735 718.226 537.738 718.23 537.738 718.23Z" fill="black" stroke="white" stroke-width="10"/>
<path id="beatles-4" d="M594.176 718.125V722.716L598.751 723.107C604.64 723.61 611.331 724.463 618.469 725.373C621.486 725.757 624.582 726.152 627.732 726.535C638.198 727.807 649.133 728.929 658.873 728.929C709.218 728.929 734.59 692.294 734.59 657.902C734.59 640.737 728.061 621.049 718.762 600.761C709.42 580.378 696.998 558.807 684.712 537.801C683.573 535.854 682.436 533.912 681.303 531.977C670.147 512.932 659.344 494.488 651.062 477.64C641.861 458.923 636.202 442.991 636.202 430.91C636.202 415.477 647.794 400.357 669.775 400.357C683.933 400.357 693.067 406.328 699.085 414.253C705.263 422.388 708.275 432.783 709.357 441.333L709.911 445.705H714.318H723.043H728.043V440.705V391.729V387.558L723.939 386.81C711.875 384.611 691.333 381.65 672.989 381.65C670.906 381.65 668.776 381.646 666.611 381.641C646.597 381.599 623.503 381.55 604.813 385.001C594.456 386.913 584.87 389.991 577.774 395.164C570.484 400.479 565.894 407.986 565.828 417.996C563.681 443.525 570.961 469.121 582.695 493.843C594.464 518.636 610.894 542.919 627.391 565.805C632.161 572.424 636.925 578.911 641.589 585.261C653.163 601.019 664.12 615.938 673.036 629.96C685.633 649.77 693.364 666.642 693.364 680.395C693.364 687.734 691.042 695.121 685.833 700.633C680.697 706.068 672.242 710.223 658.873 710.223C644.516 710.223 633.591 702.95 625.793 692.543C617.92 682.037 613.491 668.61 612.419 657.425L611.985 652.902H607.442H599.176H594.176V657.902V718.125Z" fill="black" stroke="white" stroke-width="10"/>
</g>
</g>
</svg>
