<svg width="720" height="356" viewBox="0 0 720 356" fill="none" xmlns="http://www.w3.org/2000/svg">
<g id="logo">
<g id="THE">
<path id="T" d="M333.02 19.48H330.8C329.01 2.82001 321.19 2.57001 316.45 2.57001H315.04V77.78C315.04 80.85 315.43 84.57 320.43 84.57H322.48V86.75H296.25V84.57H298.43C303.17 84.57 303.17 80.85 303.17 77.78V2.57001H301.8C297.06 2.57001 289.24 2.82001 287.45 19.48H285.27V0H333.06L333.02 19.48Z" fill="black"/>
<path id="TH" d="M387.86 2.06H387.22C382.61 2.06 382.48 5.78 382.48 8.34V77.79C382.48 80.86 382.61 84.58 387.09 84.58H388.09V86.76H365.05V84.58H366.46C371.08 84.58 371.33 80.86 371.33 77.79V44.34H352.33V77.78C352.33 80.85 352.46 84.57 356.81 84.57H357.97V86.75H334.94V84.57H336.23C340.97 84.57 341.09 80.85 341.09 77.78V8.32999C341.09 5.76999 341.09 2.04999 336.09 2.04999H335.19V0H357.8V2.06H357.16C352.55 2.06 352.42 5.78 352.42 8.34V41.06H371.42V8.32999C371.42 5.76999 371.42 2.04999 366.3 2.04999H365.4V0H387.95L387.86 2.06Z" fill="black"/>
<path id="THE_2" d="M409.64 40.49H413.36C417.71 40.49 421.94 37.8 421.94 32.29V29.47H424.5V56.25H421.94V52.15C421.999 50.9955 421.82 49.8411 421.413 48.759C421.007 47.6769 420.381 46.6902 419.576 45.8607C418.771 45.0311 417.803 44.3765 416.734 43.9376C415.664 43.4988 414.516 43.2851 413.36 43.31H409.64V80.31C409.64 83.64 411.64 83.9 412.72 83.9H418.48C424.25 83.9 430.14 82.49 432.06 64.81H434.37V86.72H391.32V84.54H392.98C397.47 84.54 397.73 80.54 397.73 77.75V8.32999C397.73 5.76999 397.73 2.04999 392.73 2.04999H391.32V0H432.8V19.48H430.5C429.6 10.48 426.78 2.82001 416.79 2.82001H409.61L409.64 40.49Z" fill="black"/>
</g>
<rect id="The-Mask" x="262" width="197" height="87" fill="#14FF00"/>
<g id="BEATLES">
<path id="B" d="M82.09 0.26001C123.09 0.26001 155.97 18.41 155.97 64.64C155.97 97.04 132.64 131.17 98.97 137.64C139.15 145.85 164.64 179.98 164.64 216.7C164.64 258.61 132.23 292.7 89.9 292.7H0V285.35H4.32001C20.32 285.35 20.32 275.42 20.32 262.46V28.35C20.32 19.71 20.32 7.17999 3.90001 7.17999H0.449997V0.26001H82.09ZM71.29 8.91H60.49V133.76H77.8C97.67 133.76 115.39 106.98 115.39 69.82C115.36 12.36 88.14 8.91 71.29 8.91V8.91ZM60.49 272.06C60.49 283.29 67.4 283.72 70.86 283.72H82.52C108.88 283.72 121.84 257.37 121.84 218.06C121.84 152.39 88.14 143.75 76.91 143.75H60.49V272.06Z" fill="black"/>
<path id="BE" d="M200.85 202.5H208.1C216.6 202.5 224.85 197.25 224.85 186.5V181H229.85V233.25H224.85V225.25C224.85 214.75 217.35 208 208.1 208H200.85V280.25C200.85 286.75 204.85 287.25 206.85 287.25H218.1C229.35 287.25 240.85 284.5 244.6 250H249.1V292.75H165.1V288.5H168.35C177.1 288.5 177.6 280.75 177.6 275.25V139.75C177.6 134.75 177.6 127.5 167.85 127.5H165.1V123.5H246.1V161.5H241.6C239.85 144 234.35 129 214.85 129H200.85V202.5Z" fill="black"/>
<path id="BEA" d="M302.6 119L337.1 276.25C339.1 285.75 344.35 288.5 350.85 288.5V292.75H303.35V288.5C311.85 288.5 314.1 286.5 313.1 279C313.1 279.25 309.6 261.5 304.6 238.25H274.1L266.85 278.75C266.35 282.75 267.35 288 278.6 288.5V292.75H243.1V288.5C254.1 288.5 256.85 282.75 258.85 274.75L284.6 142.25C283.1 135 282.1 130 282.1 130C289.56 127.645 296.513 123.914 302.6 119V119ZM288.35 160.25L275.35 231.75H303.35L288.35 160.25Z" fill="black"/>
<path id="BEAT" d="M459.53 175.63H453.7C448.89 131.04 427.97 130.36 415.28 130.36H411.51V331.68C411.51 339.91 412.51 349.86 425.92 349.86H431.4V355.69H361.1V349.86H366.93C379.62 349.86 379.62 339.91 379.62 331.68V130.36H375.8C363.11 130.36 342.19 131.04 337.39 175.63H331.6V123.5H459.53V175.63Z" fill="black"/>
<path id="BEATL" d="M504.35 280.25C504.35 286.75 508.35 287.25 510.35 287.25H520.85C532.1 287.25 543.6 284.5 547.35 250H551.85V292.75H468.6V288.5H471.85C480.6 288.5 481.1 280.75 481.1 275.25V139.75C481.1 134.75 481.1 127.5 470.35 127.5H468.85V123.5H515.6V127.5H513.35C504.35 127.5 504.35 134.75 504.35 139.75V280.25Z" fill="black"/>
<path id="BEATLE" d="M592.1 202.5H599.35C607.85 202.5 616.1 197.25 616.1 186.5V181H621.1V233.25H616.1V225.25C616.1 214.75 608.6 208 599.35 208H592.1V280.25C592.1 286.75 596.1 287.25 598.1 287.25H609.35C620.6 287.25 632.1 284.5 635.85 250H640.35V292.75H556.35V288.5H559.6C568.35 288.5 568.85 280.75 568.85 275.25V139.75C568.85 134.75 568.85 127.5 559.1 127.5H556.35V123.5H637.35V161.5H632.85C631.1 144 625.6 129 606.1 129H592.1V202.5Z" fill="black"/>
<path id="BEATLES_2" d="M681.1 295.5C670.85 295.5 657.85 292.5 648.6 291.5V250H653.1C654.35 266.5 663.35 289.5 681.1 289.5C696.85 289.5 702.6 277 702.6 265.5C702.6 223.25 645.6 207 645.6 162.5C645.6 139.5 662.6 120.75 686.1 120.75C695.85 120.75 706.85 122.75 713.35 124.25V158H708.6C707.35 145.5 701.6 126.75 684.35 126.75C670.85 126.75 663.35 138.75 663.35 151.25C663.35 188 719.6 205.75 719.6 250C719.6 272 706.85 295.5 681.1 295.5Z" fill="black"/>
</g>
<rect id="Beatles-Mask" width="720" height="356" fill="#FAFF00"/>
</g>
</svg>
