<svg width="20427" height="20456" viewBox="0 0 20427 20456" fill="none" xmlns="http://www.w3.org/2000/svg">
<g id="logo-4">
<g id="morphT">
<path id="T-4" d="M7797.54 15430.9L7848.97 15484.2C7372.99 16026.8 7752.73 16036.9 7862.54 16150.6L7895.21 16184.4L9798.03 14345.6C9893.39 14253.5 9999.89 14132.6 9884.06 14012.6L9836.57 13963.5L10131.1 13666.1L10738.8 14295.3L10444.2 14592.7L10393.7 14540.4C10283.9 14426.7 10168.4 14538.3 10073 14630.4L8170.2 16469.2L8201.94 16502C8311.75 16615.7 8294.34 16980.9 8853.26 16524.1L8903.76 16576.4L8298.72 17160.7L7191.58 16014.2L7797.54 15430.9Z" fill="black"/>
<path id="TH-4" d="M1512.2 15869.5L1540.75 15899C1746.41 16112 1951.03 15926 2087.84 15793.9L5799.59 12209.5C5963.66 12051.1 6156.68 11853.1 5956.82 11646.1L5912.2 11599.9L6028.72 11487.4L7056.58 12551.8L6940.07 12664.3L6877.17 12599.1C6671.06 12385.7 6461.09 12566.2 6297.01 12724.6L4509.28 14451L5356.91 15328.7L7144.11 13602.9C7308.18 13444.4 7501.2 13246.4 7307.14 13045.5L7255.39 12991.9L7371.9 12879.4L8399.31 13943.3L8282.81 14055.8L8225.26 13996.2C8013.8 13777.2 7587.26 13789.1 7423.19 13947.6L3711.44 17531.9C3574.63 17664.1 3598.17 18030.6 3821.23 18261.6L3861.38 18303.2L3751.82 18409L2743.14 17364.5L2853.24 17258.2L2881.79 17287.7C3087.45 17500.7 3292.07 17314.7 3428.89 17182.6L5177.6 15493.9L4329.97 14616.1L2580.72 16305.3C2443.9 16437.5 2245.09 16629.5 2473.5 16866L2513.65 16907.6L2404.09 17013.4L1398.09 15971.6L1512.2 15869.5Z" fill="black"/>
<path id="THE-4" d="M5282.26 11402.6L5206.35 11324C5117.59 11232.1 4974.38 11197.6 4857.85 11310.2L4798.21 11367.8L4745.97 11313.7L5312.34 10766.7L5364.58 10820.8L5277.87 10904.6C5252.24 10926.9 5231.49 10954.3 5216.9 10985C5202.31 11015.7 5194.21 11049 5193.1 11083C5191.98 11116.9 5197.88 11150.7 5210.42 11182.3C5222.96 11213.9 5241.88 11242.5 5265.99 11266.4L5341.9 11345L6124.42 10589.4C6194.85 10521.3 6159.53 10473.8 6137.5 10450.9L6019.96 10329.2C5902.22 10207.3 5752.21 10111.7 5339.11 10432.2L5291.98 10383.4L5755.36 9935.88L6633.82 10845.5L6587.71 10890.1L6553.84 10855C6462.22 10760.1 6372.32 10836.3 6313.31 10893.3L5450.47 11478.8L4845.13 12311.1C4790.99 12363.4 4712.31 12439.4 4814.34 12545L4843.11 12574.8L4799.76 12616.7L3953.33 11740.2L4365.32 11342.3L4412.25 11390.9C4240.28 11593.8 4135.82 11809.8 4339.67 12020.9L4486.18 12172.6L5282.26 11402.6Z" fill="black"/>
</g>
<g id="morphB">
<path id="BEA-4" d="M9971.2 12903.9L13309 8393.46C13533.7 8096.61 13505.5 7914.15 13375.8 7779.81L13494.2 7665.51L14442.2 8647.18L14323.8 8761.49C14154.2 8585.82 14053.6 8593.11 13864.6 8815.5C13871.6 8808.77 13800.3 8926.61 13252.6 9655.28L13861.3 10285.6L15134 9346.17C15255.4 9248.92 17220.8 7784.68 17010.2 7538.73L17128.6 7424.42L17837.1 8158.09L17718.7 8272.4C17499.2 8045.07 15445 9445.25 15182.2 9619.09L10978 12650.6C10806 12876.6 10686.7 13031.8 10686.7 13031.8C10472.2 12940.9 10229.5 12897.6 9971.2 12903.9ZM11404.5 12089L13655.3 10434.6L13096.5 9855.94L11404.5 12089Z" fill="black"/>
<path id="BE-4" d="M9782.01 16195.5L8642.84 14982.3L8642.82 14982.3L8642.79 14982.3C8617.6 14956.2 8608.24 14919.8 8612.6 14874.4C8616.96 14829 8635.05 14775.1 8664.09 14714.8C8722.16 14594.4 8823.37 14450 8942.95 14299.8C9144.87 14046.3 9398.5 13777.3 9583.45 13581.1C9617.53 13545 9649.28 13511.3 9677.94 13480.7L9681.18 13477.2L9677.88 13473.8L9628.89 13423L9625.51 13419.5L9621.92 13422.8L8173.89 14747.3L8170.13 14750.7L8173.63 14754.4L10045.7 16726.7L10049.2 16730.3L10052.8 16726.8L10141.4 16641.3L10145 16637.9L10141.5 16634.3L10111.5 16603.3C10086 16576.8 10076.6 16547.9 10078.4 16517.6C10080.1 16487.1 10093.3 16454.9 10113.4 16422.4C10153.7 16357.2 10220.9 16292.2 10276.4 16238.6L10276.4 16238.6L10276.4 16238.6L14948.7 11656.5C14948.7 11656.5 14948.7 11656.5 14948.7 11656.5C15009.6 11597.7 15083.9 11528.7 15154.7 11486.7C15190.1 11465.7 15224.2 11451.7 15255 11448.8C15285.6 11445.9 15313 11454 15335.6 11477.5L15371 11514.1L15374.4 11517.7L15378 11514.2L15472.1 11423.4L15475.6 11420.1L15472.4 11416.5L13915 9672.24L13911.5 9668.37L13907.8 9671.98L12961.7 10585.6L12958.1 10589.1L12961.6 10592.7L13010.6 10643.4L13013.9 10646.8L13017.5 10643.7C13419.6 10296.2 13666.5 10140.8 13827.9 10087.8C13908.4 10061.4 13967.2 10060.6 14013.2 10073.9C14059.2 10087.1 14093.1 10114.6 14123.4 10146C14123.4 10146 14123.4 10146.1 14123.5 10146.1L14923.5 11040L14923.5 11040L14923.6 11040.1C14927.9 11044.6 14931.6 11052.9 14932.2 11065.5C14932.7 11078 14930.2 11094.5 14922.4 11114.9C14906.9 11155.6 14870.9 11211.2 14799.3 11280.3L13204 12820.9L13128.5 12742.8C13080 12692.6 13071.4 12611.6 13104.5 12514.2C13137.5 12416.8 13212 12304.2 13327.8 12192.4L13504.8 12021.4L13508.4 12017.9L13505 12014.3L13450.5 11957.9L13447.1 11954.3L13443.5 11957.8L12287.1 13074.5L12283.5 13077.9L12287 13081.5L12341.5 13137.9L12344.9 13141.5L12348.5 13138L12470.2 13020.5C12588.8 12906 12699 12844.4 12790.6 12823.1C12882.3 12801.9 12954.9 12821 12999.6 12867.3L13075.1 12945.4L9782.01 16195.5Z" fill="black" stroke="white" stroke-width="10"/>
<path id="B-4" d="M11371.4 16416.4L11371.2 16416.6L11371 16416.8C11089.1 16689 10760.9 16942.5 10437.4 17180.3C10337.2 17253.9 10237.5 17326.1 10139.7 17396.8C9921.74 17554.4 9713.52 17705 9531.93 17849.5C9268.93 18058.7 9060.95 18255.6 8959.97 18443.1C8909.41 18537 8885.49 18628.8 8895.16 18718.9C8904.83 18808.9 8948.06 18896.6 9030.69 18982.1L10337.4 20335.3L10340.9 20338.9L10344.5 20335.4L10513.4 20172.3L10517 20168.8L10513.6 20165.2L10458.3 20108C10393.3 20040.7 10363.8 19972.3 10358.9 19904.5C10354 19836.5 10373.8 19768.7 10408.5 19702.5C10478 19570 10606.6 19445.8 10712.2 19343.8L10712.3 19343.7L10712.4 19343.6L14286.2 15406.2L18467.3 12080.3L18467.5 12080.1L18467.7 12079.9C18626.1 11927 18765.2 11792.7 18896.4 11729.6C18961.9 11698.1 19025 11684.5 19087.4 11694.9C19149.8 11705.2 19212 11739.6 19275.5 11805.4L19344.7 11877L19348.1 11880.6L19351.7 11877.1L19531.2 11703.8L19534.8 11700.4L19531.3 11696.8L18092.4 10206.7C17922.2 10030.5 17761.5 9974.06 17600 10005.5C17439.2 10036.9 17278.7 10155.3 17108.3 10325.7C16961.5 10472.3 16806.8 10658.1 16637.5 10861.4C16610.1 10894.4 16582.2 10927.8 16554 10961.6C16351.5 11203.8 16127.8 11465.1 15872.2 11711.9C15649.1 11927.4 15369.7 12024.8 15090.8 12083.5C14968.1 12109.3 14845.5 12127.5 14727.9 12145.1C14711.9 12147.4 14696 12149.8 14680.2 12152.2C14548.3 12172 14423.6 12192.1 14313.4 12222.4C14203.2 12252.7 14107.3 12293.3 14033.1 12354.4C13958.8 12415.6 13906.6 12497.3 13883.8 12609.1C13838.6 12830.4 13908.3 13169.7 14147.4 13703.8C13631 13420.9 13276.1 13387.1 13015.4 13512.9C12752.9 13639.5 12587.7 13927.2 12449.2 14278.9C12383.9 14444.5 12324.5 14624.6 12263.5 14809.3C12259.7 14820.8 12255.9 14832.3 12252.1 14843.9C12187.1 15040.6 12119.9 15241.8 12041.7 15435.7C11885.2 15823.6 11685.1 16181.7 11371.4 16416.4ZM14672.2 14444.5L9591.39 19125.8L9421.92 18950.3C9405.6 18933.4 9395.66 18915.4 9391.44 18896.4C9387.21 18877.3 9388.64 18856.7 9395.61 18834.4C9409.6 18789.6 9445.74 18738.4 9501.73 18679.9C9613.64 18563 9802.83 18419 10044.8 18241C10089.6 18208 10136.3 18173.9 10184.6 18138.5C10657 17792.7 11286.4 17332 11922.8 16717C12262.2 16389.1 12650.8 15902.7 13020.7 15439.8C13145.3 15283.8 13267.8 15130.4 13385.6 14986.7C13619.4 14701.4 13834.5 14454.1 14011 14298.7C14099.3 14221 14177.5 14166.6 14243.2 14141.8C14308.8 14117 14360.8 14122.1 14398.6 14161.2L14672.2 14444.5ZM18170.7 10740.9C18198.2 10769.4 18235.8 10813.6 18233.5 10882.9C18231.3 10952.4 18188.9 11048.6 18052.1 11180.6L14923.3 14202.1L14664 13933.5C14641.7 13910.5 14627.1 13889.8 14621 13868.3C14614.9 13847 14617.1 13824.3 14629.6 13796.8C14642.3 13769.1 14665.4 13736.8 14701.1 13696.7C14736.7 13656.6 14784.5 13609 14846.4 13550.6C14922.2 13479 15019.1 13391.4 15140.1 13282C15413.7 13034.6 15810.5 12675.6 16366.2 12139C16758.6 11760.1 17031.4 11351.9 17245.3 11031.9C17293.3 10960.1 17338.3 10892.8 17381 10831.3C17439.3 10747.2 17493.4 10673.9 17544.9 10614.6C17596.5 10555.3 17645.3 10510.2 17693.2 10482.5C17741 10454.8 17787.6 10444.4 17835.1 10454C17882.6 10463.6 17931.7 10493.5 17984.1 10547.7L18170.7 10740.9Z" fill="black" stroke="white" stroke-width="10"/>
<path id="BEAT-4" d="M7998.01 10378L8078.69 10461.6C6954.1 11640.4 7461.04 11829.1 7636.66 12011L7688.83 12065L10908.3 8956.03L14127.8 5847.03C14391 5592.83 14695.4 5271.19 14509.8 5079.01L14434 5000.48L14620.4 4820.41L15593.3 5827.86L15406.9 6007.93L15326.2 5924.38C15150.6 5742.53 14832.3 6049.84 14569.1 6304.04L11153.2 9311.54L8130.16 12522L8183.03 12576.8C8358.64 12758.6 8507.77 13162.9 9688.31 12128.4L9768.44 12211.4L8575.31 13422.1L6804.88 11588.7L7998.01 10378Z" fill="black"/>
<path id="BEATL-4" d="M10705.2 4631.36L10708.5 4634.69L10712 4631.73C11409.5 4052.3 11855.5 3812.94 12161.9 3754.49C12314.9 3725.3 12432.9 3741.26 12530.2 3782.44C12627.5 3823.65 12704.4 3890.3 12774.8 3963.17L13038.1 4235.92C13062.8 4261.45 13094.6 4303.66 13090.8 4368.25C13086.9 4433.06 13047 4521.66 12924.8 4639.63L7626.32 9756.31C7531.9 9847.5 7416.98 9958.41 7297.66 10017.5C7238.09 10047.1 7177.8 10063.5 7118.69 10058.3C7059.7 10053.2 7001.37 10026.5 6945.66 9968.77L6889.22 9910.32L6885.75 9906.72L6882.15 9910.2L6731.3 10055.9L6727.71 10059.3L6731.18 10062.9L7903.9 11277.3L7907.38 11280.9L7910.97 11277.5L8061.82 11131.8L8065.42 11128.3L8061.94 11124.7L8024.32 11085.7C7957.49 11016.5 7924.61 10948.6 7915.44 10883C7906.26 10817.3 7920.75 10753.4 7949.56 10692.2C8007.31 10569.5 8122.05 10458.7 8216.5 10367.5L13326.4 5432.86C13430.2 5332.67 13557.7 5215.83 13686.5 5152.28C13750.8 5120.53 13815.1 5102.28 13876.6 5105.8C13938 5109.32 13997 5134.52 14051.1 5190.49L14132.6 5274.91L14136.1 5278.51L14139.7 5275.03L14299.9 5120.26L14303.5 5116.79L14300.1 5113.19L12211.7 2950.66L12208.3 2947.07L12204.7 2950.54L10592.5 4507.39L10588.9 4510.87L10592.4 4514.46L10705.2 4631.36Z" fill="black" stroke="white" stroke-width="10"/>
<path id="BEATLE-4" d="M7997.91 5641.78L8879.1 6526.42L5837.73 9420.86L5640.67 9216.8C5502.24 9073.46 5474.03 8923.79 5512.21 8772.63C5550.52 8620.99 5655.74 8467.53 5785.06 8317.59L5788.04 8314.13L5784.87 8310.85L5720.43 8244.11L5716.95 8240.51L5713.36 8243.99L5096.8 8839.39L5093.2 8842.86L5096.67 8846.46L6256.75 10047.8L6260.23 10051.4L6263.82 10047.9L6328.72 9985.21L6332.32 9981.73L6328.85 9978.14L6289.46 9937.35C6255.02 9901.68 6236.75 9868.25 6229.66 9837.14C6222.58 9806.07 6226.55 9776.9 6237.29 9749.53C6258.88 9694.56 6307.55 9647.38 6348.26 9608.07L8412.19 8005.68L8412.43 8005.5L8412.65 8005.28L11447.6 4982.78C11447.6 4982.77 11447.6 4982.77 11447.6 4982.76C11492.3 4939.63 11547.1 4890.3 11606.1 4867.66C11635.5 4856.39 11665.7 4851.82 11696 4857.81C11726.3 4863.79 11757.2 4880.4 11788 4912.24L11834.5 4960.44L11838 4964.04L11841.6 4960.56L11910.6 4893.97L11914.2 4890.5L11910.7 4886.9L10707.6 3641.11L10704.2 3637.51L10700.6 3640.99L10006.9 4310.81L10003.3 4314.29L10006.8 4317.88L10071.3 4384.62L10074.4 4387.88L10078 4385.07C10384.5 4142.75 10589.2 4054.21 10736.7 4046.4C10883.7 4038.62 10975 4110.91 11055.2 4193.99L11216.3 4360.84C11230.4 4375.42 11248.8 4398.57 11251.4 4430.03C11253.9 4461.25 11240.9 4502.09 11188.9 4552.32L8975.77 6433.54L8094.29 5548.6C8094.28 5548.59 8094.27 5548.58 8094.26 5548.56C7963.98 5413.63 7965.52 5199.82 8134.16 5036.97L8263.96 4911.62L8267.56 4908.15L8264.08 4904.55L8192.47 4830.4L8189 4826.8L8185.4 4830.27L7337.64 5648.95L7334.04 5652.43L7337.51 5656.02L7409.12 5730.18L7412.6 5733.77L7416.19 5730.3L7505.43 5644.12C7591.74 5560.77 7684.86 5529.3 7771.19 5533.94C7857.63 5538.59 7937.75 5579.48 7997.86 5641.72L7997.88 5641.75L7997.91 5641.78Z" fill="black" stroke="white" stroke-width="10"/>
<path id="BEATLES-4" d="M10260.9 3517.03L10264.2 3513.84L10261.3 3510.28C10181.9 3412.62 10095.5 3296.84 10004.8 3175.33C9967.03 3124.71 9928.51 3073.1 9889.45 3021.4C9756.69 2845.67 9617.72 2668.94 9480.66 2527C8791.02 1812.86 7934.1 1956.4 7451.77 2422.17C7209.33 2656.3 7014.2 3024.14 6845.29 3455.68C6676.35 3887.31 6533.42 4383.27 6395.68 4874.02C6382.9 4919.56 6370.17 4965.05 6357.46 5010.44C6233.18 5454.35 6111.58 5888.67 5977.06 6261.89C5828.71 6673.43 5664.93 7009.8 5465.14 7202.73C5194.05 7464.52 4734.84 7510.26 4376.35 7139.03C4147.23 6901.77 4096.49 6645.52 4132.67 6411.42C4168.89 6177.06 4292.28 5964.68 4411.78 5815.97L4414.54 5812.54L4411.48 5809.37L4284.66 5678.04L4281.18 5674.44L4277.59 5677.91L3540.37 6389.83L3537.37 6392.73L3539.69 6396.2C3680.54 6607.66 3930.75 6954.27 4191.37 7224.15C4221.65 7255.51 4252.41 7287.49 4283.59 7319.9C4575.25 7623.13 4903.5 7964.4 5219.05 8189.81C5393.7 8314.56 5564.92 8404.17 5724.31 8432.01C5883.93 8459.89 6031.63 8425.77 6158.48 8303.37C6556.81 7979.84 6829.01 7515.13 7027.75 6986.61C7226.52 6458.01 7351.95 5865.19 7456.48 5285.18C7486.34 5119.49 7514.49 4954.87 7542.16 4793.09C7611.38 4388.35 7677.56 4001.36 7759.85 3659.88C7875.07 3181.73 8021.6 2794.15 8251.19 2572.44C8376.06 2451.85 8544.34 2365.72 8733.42 2363.67C8922.39 2361.63 9132.91 2443.57 9342.41 2660.51C9578.02 2904.49 9630.8 3208.96 9583.82 3500.49C9536.83 3792.13 9390 4070.45 9226.99 4261.16L9224.04 4264.61L9227.2 4267.88L9347.35 4392.3L9350.82 4395.9L9354.42 4392.42L10260.9 3517.03Z" fill="black" stroke="white" stroke-width="10"/>
</g>
</g>
</svg>
